<svg width="142" height="40" viewBox="0 0 142 40" fill="none" xmlns="http://www.w3.org/2000/svg">
<path d="M31.5 12L19.5 5L7.5 12M31.5 12V26L19.5 33M31.5 12L19.5 19M19.5 33L7.5 26V12M19.5 33V19M7.5 12L19.5 19" stroke="#D5DBE6" stroke-width="2.5" stroke-linejoin="round"/>
<path d="M19.5 23.5C21.9853 23.5 24 21.4853 24 19C24 16.5147 21.9853 14.5 19.5 14.5C17.0147 14.5 15 16.5147 15 19C15 21.4853 17.0147 23.5 19.5 23.5Z" fill="#D5DBE6"/>
<path d="M64.7372 15.7656H60.3821C60.3026 15.2022 60.1402 14.7017 59.8949 14.2642C59.6496 13.8201 59.3348 13.4422 58.9503 13.1307C58.5658 12.8191 58.1217 12.5805 57.6179 12.4148C57.1207 12.2491 56.5805 12.1662 55.9972 12.1662C54.9432 12.1662 54.0251 12.428 53.2429 12.9517C52.4607 13.4687 51.8542 14.2244 51.4233 15.2188C50.9924 16.2064 50.777 17.4062 50.777 18.8182C50.777 20.2699 50.9924 21.4896 51.4233 22.4773C51.8608 23.465 52.4706 24.2107 53.2528 24.7145C54.035 25.2183 54.9399 25.4702 55.9673 25.4702C56.544 25.4702 57.0777 25.3939 57.5682 25.2415C58.0653 25.089 58.5062 24.867 58.8906 24.5753C59.2751 24.277 59.5933 23.9157 59.8452 23.4915C60.1037 23.0672 60.2827 22.5833 60.3821 22.0398L64.7372 22.0597C64.6245 22.9943 64.3428 23.8958 63.892 24.7642C63.4479 25.6259 62.848 26.3982 62.0923 27.081C61.3433 27.7571 60.4484 28.294 59.4077 28.6918C58.3736 29.0829 57.2036 29.2784 55.8977 29.2784C54.0814 29.2784 52.4574 28.8674 51.0256 28.0455C49.6004 27.2235 48.4735 26.0336 47.6449 24.4759C46.8229 22.9181 46.4119 21.0322 46.4119 18.8182C46.4119 16.5975 46.8295 14.7083 47.6648 13.1506C48.5 11.5928 49.6335 10.4062 51.0653 9.59091C52.4972 8.76894 54.108 8.35795 55.8977 8.35795C57.0777 8.35795 58.1714 8.52367 59.179 8.85511C60.1932 9.18655 61.0914 9.67045 61.8736 10.3068C62.6558 10.9366 63.2921 11.7088 63.7827 12.6236C64.2798 13.5384 64.598 14.5857 64.7372 15.7656ZM67.745 29V13.7273H71.8516V16.392H72.0107C72.2891 15.4441 72.7564 14.7282 73.4126 14.2443C74.0689 13.7538 74.8246 13.5085 75.6797 13.5085C75.8918 13.5085 76.1205 13.5218 76.3658 13.5483C76.611 13.5748 76.8265 13.6113 77.0121 13.6577V17.4162C76.8132 17.3565 76.5381 17.3035 76.1868 17.2571C75.8355 17.2107 75.514 17.1875 75.2223 17.1875C74.5992 17.1875 74.0424 17.3234 73.5518 17.5952C73.0679 17.8603 72.6835 18.2315 72.3984 18.7088C72.12 19.1861 71.9808 19.7363 71.9808 20.3594V29H67.745ZM79.2021 29V13.7273H83.4379V29H79.2021ZM81.3299 11.7585C80.7002 11.7585 80.1599 11.5497 79.7092 11.1321C79.265 10.7079 79.043 10.2008 79.043 9.61079C79.043 9.02746 79.265 8.52699 79.7092 8.10938C80.1599 7.68513 80.7002 7.47301 81.3299 7.47301C81.9596 7.47301 82.4966 7.68513 82.9407 8.10938C83.3915 8.52699 83.6168 9.02746 83.6168 9.61079C83.6168 10.2008 83.3915 10.7079 82.9407 11.1321C82.4966 11.5497 81.9596 11.7585 81.3299 11.7585ZM94.9545 13.7273V16.9091H85.7571V13.7273H94.9545ZM87.8452 10.0682H92.081V24.3068C92.081 24.6979 92.1406 25.0028 92.2599 25.2216C92.3793 25.4337 92.545 25.5829 92.7571 25.669C92.9759 25.7552 93.2277 25.7983 93.5128 25.7983C93.7116 25.7983 93.9105 25.7817 94.1094 25.7486C94.3082 25.7088 94.4607 25.679 94.5668 25.6591L95.233 28.8111C95.0208 28.8774 94.7225 28.9536 94.3381 29.0398C93.9536 29.1326 93.4863 29.1889 92.9361 29.2088C91.9152 29.2486 91.0204 29.1127 90.2514 28.8011C89.4891 28.4896 88.8958 28.0057 88.4716 27.3494C88.0473 26.6932 87.8385 25.8646 87.8452 24.8636V10.0682ZM97.7138 29V13.7273H101.95V29H97.7138ZM99.8416 11.7585C99.2119 11.7585 98.6716 11.5497 98.2209 11.1321C97.7768 10.7079 97.5547 10.2008 97.5547 9.61079C97.5547 9.02746 97.7768 8.52699 98.2209 8.10938C98.6716 7.68513 99.2119 7.47301 99.8416 7.47301C100.471 7.47301 101.008 7.68513 101.452 8.10938C101.903 8.52699 102.129 9.02746 102.129 9.61079C102.129 10.2008 101.903 10.7079 101.452 11.1321C101.008 11.5497 100.471 11.7585 99.8416 11.7585ZM112.243 29.2983C110.679 29.2983 109.333 28.9669 108.206 28.304C107.086 27.6345 106.224 26.7064 105.621 25.5199C105.025 24.3333 104.726 22.9678 104.726 21.4233C104.726 19.8589 105.028 18.4867 105.631 17.3068C106.241 16.1203 107.106 15.1955 108.226 14.5327C109.346 13.8632 110.679 13.5284 112.223 13.5284C113.556 13.5284 114.722 13.7704 115.723 14.2543C116.724 14.7382 117.516 15.4176 118.1 16.2926C118.683 17.1676 119.005 18.1951 119.064 19.375H115.067C114.954 18.6127 114.656 17.9995 114.172 17.5355C113.695 17.0649 113.069 16.8295 112.293 16.8295C111.637 16.8295 111.063 17.0085 110.573 17.3665C110.089 17.7178 109.711 18.2315 109.439 18.9077C109.167 19.5838 109.032 20.4025 109.032 21.3636C109.032 22.3381 109.164 23.1667 109.429 23.8494C109.701 24.5322 110.082 25.0526 110.573 25.4105C111.063 25.7685 111.637 25.9474 112.293 25.9474C112.777 25.9474 113.211 25.848 113.596 25.6491C113.987 25.4503 114.308 25.1619 114.56 24.7841C114.819 24.3996 114.988 23.9389 115.067 23.402H119.064C118.998 24.5687 118.68 25.5961 118.11 26.4844C117.546 27.366 116.767 28.0554 115.773 28.5526C114.779 29.0497 113.602 29.2983 112.243 29.2983ZM128.677 29.2983C127.132 29.2983 125.797 28.9702 124.67 28.3139C123.549 27.651 122.684 26.7296 122.075 25.5497C121.465 24.3632 121.16 22.9877 121.16 21.4233C121.16 19.8456 121.465 18.4669 122.075 17.2869C122.684 16.1004 123.549 15.179 124.67 14.5227C125.797 13.8598 127.132 13.5284 128.677 13.5284C130.221 13.5284 131.554 13.8598 132.674 14.5227C133.801 15.179 134.669 16.1004 135.279 17.2869C135.889 18.4669 136.194 19.8456 136.194 21.4233C136.194 22.9877 135.889 24.3632 135.279 25.5497C134.669 26.7296 133.801 27.651 132.674 28.3139C131.554 28.9702 130.221 29.2983 128.677 29.2983ZM128.697 26.017C129.399 26.017 129.986 25.8182 130.457 25.4205C130.927 25.0161 131.282 24.4659 131.521 23.7699C131.766 23.0739 131.888 22.2817 131.888 21.3935C131.888 20.5052 131.766 19.7131 131.521 19.017C131.282 18.321 130.927 17.7708 130.457 17.3665C129.986 16.9621 129.399 16.7599 128.697 16.7599C127.987 16.7599 127.391 16.9621 126.907 17.3665C126.43 17.7708 126.068 18.321 125.823 19.017C125.585 19.7131 125.465 20.5052 125.465 21.3935C125.465 22.2817 125.585 23.0739 125.823 23.7699C126.068 24.4659 126.43 25.0161 126.907 25.4205C127.391 25.8182 127.987 26.017 128.697 26.017Z" fill="#D5DBE6"/>
</svg>
