<svg width="18" height="18" viewBox="0 0 18 18" fill="none" xmlns="http://www.w3.org/2000/svg">
<g filter="url(#filter0_d_232_5579)">
<path d="M8.7998 0C8.96746 0 9.11367 0.114649 9.1546 0.277375C9.27968 0.775083 9.44449 1.26195 9.64746 1.73329C10.1781 2.96607 10.9061 4.045 11.8305 4.96934C12.7553 5.89392 13.834 6.622 15.0665 7.15259C15.538 7.3555 16.0249 7.52031 16.5227 7.64545C16.6854 7.68638 16.7998 7.83234 16.7998 8C16.7998 8.16766 16.6854 8.31387 16.5224 8.35479C16.0247 8.47987 15.5379 8.64469 15.0665 8.84766C13.8337 9.37825 12.7551 10.1063 11.8305 11.0307C10.9061 11.9555 10.1781 13.0342 9.64746 14.2667C9.44447 14.7381 9.27957 15.2251 9.15435 15.7229C9.13454 15.8019 9.0889 15.8721 9.02468 15.9223C8.96046 15.9725 8.88132 15.9999 8.7998 16C8.63215 16 8.48619 15.8856 8.44526 15.7226C8.32009 15.2249 8.15519 14.738 7.95215 14.2667C7.4218 13.0339 6.69397 11.9553 5.76914 11.0307C4.84455 10.1063 3.76587 9.37825 2.53309 8.84766C2.06174 8.64467 1.57487 8.47978 1.07718 8.35455C0.998107 8.33479 0.927886 8.28921 0.877644 8.22503C0.827401 8.16086 0.800008 8.08175 0.799805 8.00025C0.799805 7.83259 0.914453 7.68663 1.07718 7.6457C1.57489 7.52054 2.06176 7.35564 2.53309 7.15259C3.76587 6.62225 4.8448 5.89417 5.76914 4.96958C6.69372 4.04524 7.4218 2.96631 7.95239 1.73353C8.1553 1.26217 8.32011 0.775309 8.44526 0.277622C8.46498 0.198462 8.51057 0.128156 8.57481 0.0778605C8.63904 0.0275653 8.71823 0.000162237 8.7998 0Z" fill="#858B94"/>
</g>
<defs>
<filter id="filter0_d_232_5579" x="-0.000195265" y="0" width="17.6" height="17.6" filterUnits="userSpaceOnUse" color-interpolation-filters="sRGB">
<feFlood flood-opacity="0" result="BackgroundImageFix"/>
<feColorMatrix in="SourceAlpha" type="matrix" values="0 0 0 0 0 0 0 0 0 0 0 0 0 0 0 0 0 0 127 0" result="hardAlpha"/>
<feOffset dy="0.8"/>
<feGaussianBlur stdDeviation="0.4"/>
<feComposite in2="hardAlpha" operator="out"/>
<feColorMatrix type="matrix" values="0 0 0 0 0 0 0 0 0 0 0 0 0 0 0 0 0 0 1 0"/>
<feBlend mode="normal" in2="BackgroundImageFix" result="effect1_dropShadow_232_5579"/>
<feBlend mode="normal" in="SourceGraphic" in2="effect1_dropShadow_232_5579" result="shape"/>
</filter>
</defs>
</svg>
