<svg width="32" height="32" viewBox="0 0 32 32" fill="none" xmlns="http://www.w3.org/2000/svg">
  <defs>
    <linearGradient id="gs2" x1="0" y1="0" x2="32" y2="32" gradientUnits="userSpaceOnUse">
      <stop stop-color="#FFC400"/>
      <stop offset="0.35" stop-color="#66BCD3"/>
      <stop offset="0.7" stop-color="#E06368"/>
      <stop offset="1" stop-color="#FF72E5"/>
    </linearGradient>
  </defs>
  <!-- Document border -->
  <rect x="4" y="2" width="20" height="2" rx="1" fill="url(#gs2)"/>
  <rect x="2" y="4" width="2" height="24" rx="1" fill="url(#gs2)"/>
  <rect x="24" y="4" width="2" height="24" rx="1" fill="url(#gs2)"/>
  <rect x="4" y="28" width="20" height="2" rx="1" fill="url(#gs2)"/>
  <!-- Page fold top-right -->
  <rect x="22" y="2" width="4" height="4" fill="url(#gs2)" opacity="0.3"/>
  <rect x="22" y="2" width="2" height="2" fill="url(#gs2)" opacity="0.7"/>
  <!-- Blueprint grid lines -->
  <rect x="6" y="8" width="14" height="1" fill="url(#gs2)" opacity="0.4"/>
  <rect x="6" y="12" width="14" height="1" fill="url(#gs2)" opacity="0.4"/>
  <rect x="6" y="16" width="14" height="1" fill="url(#gs2)" opacity="0.4"/>
  <!-- Nodes on blueprint -->
  <rect x="6" y="6" width="4" height="4" rx="1" fill="url(#gs2)" opacity="0.8"/>
  <rect x="14" y="10" width="4" height="4" rx="1" fill="url(#gs2)" opacity="0.8"/>
  <rect x="8" y="14" width="4" height="4" rx="1" fill="url(#gs2)" opacity="0.8"/>
  <!-- Connecting lines between nodes -->
  <rect x="10" y="8" width="4" height="1" fill="url(#gs2)" opacity="0.5"/>
  <rect x="16" y="12" width="1" height="4" fill="url(#gs2)" opacity="0.5"/>
  <!-- Bottom text lines -->
  <rect x="6" y="22" width="16" height="1" rx="0.5" fill="url(#gs2)" opacity="0.3"/>
  <rect x="6" y="25" width="10" height="1" rx="0.5" fill="url(#gs2)" opacity="0.3"/>
  <!-- Pencil / pointer top-right corner decoration -->
  <rect x="26" y="8" width="2" height="8" rx="1" fill="url(#gs2)" opacity="0.7"/>
  <rect x="25" y="16" width="4" height="2" rx="1" fill="url(#gs2)" opacity="0.5"/>
  <rect x="26" y="18" width="2" height="2" rx="1" fill="url(#gs2)" opacity="0.4"/>
  <rect x="27" y="20" width="1" height="1" rx="0.5" fill="url(#gs2)" opacity="0.3"/>
</svg>
