<svg width="32" height="32" viewBox="0 0 32 32" fill="none" xmlns="http://www.w3.org/2000/svg">
  <defs>
    <linearGradient id="g13" x1="0" y1="0" x2="32" y2="32" gradientUnits="userSpaceOnUse">
      <stop stop-color="#c4b5fd"/>
      <stop offset="1" stop-color="#7c3aed"/>
    </linearGradient>
  </defs>
  <!-- Central hub -->
  <rect x="12" y="12" width="8" height="8" rx="2" fill="url(#g13)"/>
  <!-- Connection nodes + lines — top -->
  <rect x="14" y="2" width="4" height="4" rx="1" fill="url(#g13)" opacity="0.8"/>
  <rect x="15" y="6" width="2" height="6" fill="url(#g13)" opacity="0.4"/>
  <!-- Bottom -->
  <rect x="14" y="26" width="4" height="4" rx="1" fill="url(#g13)" opacity="0.8"/>
  <rect x="15" y="20" width="2" height="6" fill="url(#g13)" opacity="0.4"/>
  <!-- Left -->
  <rect x="2" y="14" width="4" height="4" rx="1" fill="url(#g13)" opacity="0.8"/>
  <rect x="6" y="15" width="6" height="2" fill="url(#g13)" opacity="0.4"/>
  <!-- Right -->
  <rect x="26" y="14" width="4" height="4" rx="1" fill="url(#g13)" opacity="0.8"/>
  <rect x="20" y="15" width="6" height="2" fill="url(#g13)" opacity="0.4"/>
  <!-- Diagonal nodes — top-left -->
  <rect x="4" y="4" width="3" height="3" rx="1" fill="url(#g13)" opacity="0.5"/>
  <rect x="7" y="7" width="5" height="2" rx="1" fill="url(#g13)" opacity="0.25" transform="rotate(45 7 7)"/>
  <!-- top-right -->
  <rect x="25" y="4" width="3" height="3" rx="1" fill="url(#g13)" opacity="0.5"/>
  <!-- bottom-left -->
  <rect x="4" y="25" width="3" height="3" rx="1" fill="url(#g13)" opacity="0.5"/>
  <!-- bottom-right -->
  <rect x="25" y="25" width="3" height="3" rx="1" fill="url(#g13)" opacity="0.5"/>
</svg>
