<svg width="28" height="28" viewBox="0 0 28 28" fill="none" xmlns="http://www.w3.org/2000/svg">
<path fill-rule="evenodd" clip-rule="evenodd" d="M3.33333 8V10H2.66667C2.29867 10 2 10.2987 2 10.6667V12H0.666667C0.298667 12 0 12.2987 0 12.6667V15.3333C0 15.7013 0.298667 16 0.666667 16H2V17.3333C2 17.7013 2.29867 18 2.66667 18H3.33333V20H2.66667C2.29867 20 2 20.2987 2 20.6667V22H0.666667C0.298667 22 0 22.2987 0 22.6667V25.3333C0 25.7013 0.298667 26 0.666667 26H2V27.3333C2 27.7013 2.29867 28 2.66667 28H5.33333C5.70133 28 6 27.7013 6 27.3333V26H7.33333C7.70133 26 8 25.7013 8 25.3333V24.6667H10V25.3333C10 25.7013 10.2987 26 10.6667 26H12V27.3333C12 27.7013 12.2987 28 12.6667 28H15.3333C15.7013 28 16 27.7013 16 27.3333V26H17.3333C17.7013 26 18 25.7013 18 25.3333V24.6667H20V25.3333C20 25.7013 20.2987 26 20.6667 26H22V27.3333C22 27.7013 22.2987 28 22.6667 28H25.3333C25.7013 28 26 27.7013 26 27.3333V26H27.3333C27.7013 26 28 25.7013 28 25.3333V22.6667C28 22.2987 27.7013 22 27.3333 22H26V20.6667C26 20.2987 25.7013 20 25.3333 20H24.6667V18H25.3333C25.7013 18 26 17.7013 26 17.3333V16H27.3333C27.7013 16 28 15.7013 28 15.3333V12.6667C28 12.2987 27.7013 12 27.3333 12H26V10.6667C26 10.2987 25.7013 10 25.3333 10H24.6667V8H25.3333C25.7013 8 26 7.70133 26 7.33333V6H27.3333C27.7013 6 28 5.70133 28 5.33333V2.66667C28 2.29867 27.7013 2 27.3333 2H26V0.666667C26 0.298667 25.7013 0 25.3333 0H22.6667C22.2987 0 22 0.298667 22 0.666667V2H20.6667C20.2987 2 20 2.29867 20 2.66667V3.33333H18V2.66667C18 2.29867 17.7013 2 17.3333 2H16V0.666667C16 0.298667 15.7013 0 15.3333 0H12.6667C12.2987 0 12 0.298667 12 0.666667V2H10.6667C10.2987 2 10 2.29867 10 2.66667V3.33333H8V2.66667C8 2.29867 7.70133 2 7.33333 2H6V0.666667C6 0.298667 5.70133 0 5.33333 0H2.66667C2.29867 0 2 0.298667 2 0.666667V2H0.666667C0.298667 2 0 2.29867 0 2.66667V5.33333C0 5.70133 0.298667 6 0.666667 6H2V7.33333C2 7.70133 2.29867 8 2.66667 8H3.33333ZM20 4.66667H18V5.33333C18 5.70133 17.7013 6 17.3333 6H16V7.33333C16 7.70133 15.7013 8 15.3333 8H12.6667C12.2987 8 12 7.70133 12 7.33333V6H10.6667C10.2987 6 10 5.70133 10 5.33333V4.66667H8V5.33333C8 5.70133 7.70133 6 7.33333 6H6V7.33333C6 7.70133 5.70133 8 5.33333 8H4.66667V10H5.33333C5.70133 10 6 10.2987 6 10.6667V12H7.33333C7.70133 12 8 12.2987 8 12.6667V15.3333C8 15.7013 7.70133 16 7.33333 16H6V17.3333C6 17.7013 5.70133 18 5.33333 18H4.66667V20H5.33333C5.70133 20 6 20.2987 6 20.6667V22H7.33333C7.70133 22 8 22.2987 8 22.6667V23.3333H10V22.6667C10 22.2987 10.2987 22 10.6667 22H12V20.6667C12 20.2987 12.2987 20 12.6667 20H15.3333C15.7013 20 16 20.2987 16 20.6667V22H17.3333C17.7013 22 18 22.2987 18 22.6667V23.3333H20V22.6667C20 22.2987 20.2987 22 20.6667 22H22V20.6667C22 20.2987 22.2987 20 22.6667 20H23.3333V18H22.6667C22.2987 18 22 17.7013 22 17.3333V16H20.6667C20.2987 16 20 15.7013 20 15.3333V12.6667C20 12.2987 20.2987 12 20.6667 12H22V10.6667C22 10.2987 22.2987 10 22.6667 10H23.3333V8H22.6667C22.2987 8 22 7.70133 22 7.33333V6H20.6667C20.2987 6 20 5.70133 20 5.33333V4.66667Z" fill="url(#paint0_linear_232_5606)"/>
<defs>
<linearGradient id="paint0_linear_232_5606" x1="14" y1="0" x2="14" y2="28" gradientUnits="userSpaceOnUse">
<stop stop-color="#FFC400"/>
<stop offset="0.35" stop-color="#66BCD3"/>
<stop offset="0.7" stop-color="#E06368"/>
<stop offset="1" stop-color="#FF72E5"/>
</linearGradient>
</defs>
</svg>
