<svg width="14" height="14" viewBox="0 0 14 14" fill="none" xmlns="http://www.w3.org/2000/svg">
<path d="M12.9199 6.11998H7.48002V0.679956C7.48002 0.304679 7.17534 0 6.79994 0C6.42466 0 6.11998 0.304679 6.11998 0.679956V6.11998H0.679956C0.304679 6.11998 0 6.42466 0 6.79994C0 7.17534 0.304679 7.48002 0.679956 7.48002H6.11998V12.9199C6.11998 13.2953 6.42466 13.6 6.79994 13.6C7.17534 13.6 7.48002 13.2953 7.48002 12.9199V7.48002H12.9199C13.2953 7.48002 13.6 7.17534 13.6 6.79994C13.6 6.42466 13.2953 6.11998 12.9199 6.11998Z" fill="#858B94"/>
</svg>
