<svg width="32" height="32" viewBox="0 0 32 32" fill="none" xmlns="http://www.w3.org/2000/svg">
  <defs>
    <linearGradient id="g15" x1="0" y1="0" x2="32" y2="32" gradientUnits="userSpaceOnUse">
      <stop stop-color="#86efac"/>
      <stop offset="1" stop-color="#16a34a"/>
    </linearGradient>
  </defs>
  <!-- Rocket body -->
  <rect x="13" y="0" width="6" height="2" rx="1" fill="url(#g15)" opacity="0.6"/>
  <rect x="12" y="2" width="8" height="2" rx="1" fill="url(#g15)" opacity="0.8"/>
  <rect x="11" y="4" width="10" height="10" rx="2" fill="url(#g15)"/>
  <!-- Rocket window -->
  <rect x="14" y="6" width="4" height="4" rx="1" fill="url(#g15)" opacity="0.35"/>
  <!-- Rocket middle -->
  <rect x="12" y="14" width="8" height="6" fill="url(#g15)" opacity="0.9"/>
  <!-- Side fins -->
  <rect x="8" y="16" width="4" height="4" rx="1" fill="url(#g15)" opacity="0.6"/>
  <rect x="20" y="16" width="4" height="4" rx="1" fill="url(#g15)" opacity="0.6"/>
  <!-- Bottom fin detail -->
  <rect x="10" y="19" width="2" height="3" fill="url(#g15)" opacity="0.4"/>
  <rect x="20" y="19" width="2" height="3" fill="url(#g15)" opacity="0.4"/>
  <!-- Exhaust base -->
  <rect x="13" y="20" width="6" height="2" fill="url(#g15)" opacity="0.7"/>
  <!-- Flame — layered glow -->
  <rect x="14" y="22" width="4" height="4" rx="1" fill="url(#g15)" opacity="0.8"/>
  <rect x="15" y="26" width="2" height="3" rx="1" fill="url(#g15)" opacity="0.5"/>
  <rect x="13" y="26" width="2" height="2" rx="1" fill="url(#g15)" opacity="0.3"/>
  <rect x="17" y="26" width="2" height="2" rx="1" fill="url(#g15)" opacity="0.3"/>
  <!-- Checkmark overlay — top right corner (delivery complete) -->
  <rect x="21" y="1" width="2" height="4" rx="1" fill="url(#g15)"/>
  <rect x="25" y="3" width="2" height="6" rx="1" fill="url(#g15)" transform="rotate(-40 25 3)"/>
</svg>
