<svg width="13" height="14" viewBox="0 0 13 14" fill="none" xmlns="http://www.w3.org/2000/svg">
<path d="M2.87179 3.41026C2.87179 1.52995 4.40174 0 6.28205 0C8.16236 0 9.69231 1.52995 9.69231 3.41026C9.69231 5.29056 8.16236 6.82051 6.28205 6.82051C4.40174 6.82051 2.87179 5.29056 2.87179 3.41026ZM8.4359 7.89744H4.1282C1.85231 7.89744 0 9.74974 0 12.0256C0 13.1148 0.885231 14 1.97436 14H10.5897C11.6789 14 12.5641 13.1148 12.5641 12.0256C12.5641 9.74974 10.7118 7.89744 8.4359 7.89744Z" fill="url(#paint0_linear_319_1020)"/>
<defs>
<linearGradient id="paint0_linear_319_1020" x1="2.03524" y1="1.26343" x2="12.2581" y2="1.7994" gradientUnits="userSpaceOnUse">
<stop stop-color="white"/>
<stop offset="1" stop-color="#BDBBBB"/>
</linearGradient>
</defs>
</svg>
