<svg width="18" height="18" viewBox="0 0 18 18" fill="none" xmlns="http://www.w3.org/2000/svg">
<g filter="url(#filter0_d_232_5577)">
<path d="M10.7997 8.0035C10.8 8.58042 10.6959 9.15263 10.4926 9.6925C9.95248 9.89586 9.38015 10.0001 8.80305 10.0002H8.7963C8.20205 9.99944 7.63268 9.89081 7.1073 9.69275C6.90379 9.15281 6.79961 8.58052 6.7998 8.0035V7.9965C6.79953 7.41969 6.90349 6.84758 7.10668 6.30775C7.64671 6.10401 8.21918 5.99974 8.79637 6H8.80312C9.38024 5.99972 9.95265 6.10397 10.4926 6.30769C10.696 6.84747 10.8001 7.4196 10.7998 7.99644V8.00344L10.7997 8.0035ZM16.6887 6.66669H12.0189L15.3207 3.36462C15.0616 3.00057 14.7725 2.65878 14.4565 2.34281V2.34256C14.1405 2.02693 13.7988 1.7381 13.4349 1.47906L10.1329 4.78113V0.111375C9.6937 0.0374955 9.24915 0.000242306 8.8038 0L8.79555 0C8.34255 0.00025 7.89887 0.03875 7.46649 0.111375V4.78113L4.16443 1.47906C3.80052 1.73803 3.45897 2.02707 3.14337 2.34313L3.14162 2.34437C2.82615 2.65995 2.53747 3.00121 2.27855 3.36462L5.58087 6.66669H0.91118C0.91118 6.66669 0.799805 7.54375 0.799805 7.99725V8.00275C0.799805 8.45625 0.838242 8.90069 0.91118 9.33331H5.58093L2.27862 12.6354C2.7981 13.3644 3.43543 14.0017 4.16443 14.5212L7.46649 11.2189V15.8889C7.90518 15.9624 8.34919 15.9996 8.79399 16H8.8053C9.25011 15.9996 9.69412 15.9624 10.1328 15.8889V11.2189L13.4352 14.5212C13.799 14.2621 14.1406 13.9731 14.4565 13.6574L14.4572 13.6567C14.7728 13.3407 15.0616 12.9991 15.3207 12.6354L12.0184 9.33331H16.6887C16.7614 8.90144 16.7993 8.45831 16.7998 8.00581V7.99419C16.7993 7.54169 16.7614 7.09856 16.6887 6.66669Z" fill="#858B94"/>
</g>
<defs>
<filter id="filter0_d_232_5577" x="-0.000195265" y="0" width="17.6" height="17.6" filterUnits="userSpaceOnUse" color-interpolation-filters="sRGB">
<feFlood flood-opacity="0" result="BackgroundImageFix"/>
<feColorMatrix in="SourceAlpha" type="matrix" values="0 0 0 0 0 0 0 0 0 0 0 0 0 0 0 0 0 0 127 0" result="hardAlpha"/>
<feOffset dy="0.8"/>
<feGaussianBlur stdDeviation="0.4"/>
<feComposite in2="hardAlpha" operator="out"/>
<feColorMatrix type="matrix" values="0 0 0 0 0 0 0 0 0 0 0 0 0 0 0 0 0 0 1 0"/>
<feBlend mode="normal" in2="BackgroundImageFix" result="effect1_dropShadow_232_5577"/>
<feBlend mode="normal" in="SourceGraphic" in2="effect1_dropShadow_232_5577" result="shape"/>
</filter>
</defs>
</svg>
