<svg width="32" height="32" viewBox="0 0 32 32" fill="none" xmlns="http://www.w3.org/2000/svg">
  <defs>
    <linearGradient id="gs3" x1="0" y1="0" x2="32" y2="32" gradientUnits="userSpaceOnUse">
      <stop stop-color="#FFC400"/>
      <stop offset="0.35" stop-color="#66BCD3"/>
      <stop offset="0.7" stop-color="#E06368"/>
      <stop offset="1" stop-color="#FF72E5"/>
    </linearGradient>
  </defs>
  <!-- Left bracket < -->
  <rect x="6" y="14" width="4" height="4" rx="1" fill="url(#gs3)"/>
  <rect x="2" y="10" width="4" height="2" rx="1" fill="url(#gs3)" opacity="0.7" transform="rotate(-40 4 11)"/>
  <rect x="8" y="10" width="4" height="2" rx="1" fill="url(#gs3)"/>
  <rect x="8" y="20" width="4" height="2" rx="1" fill="url(#gs3)"/>
  <rect x="2" y="20" width="4" height="2" rx="1" fill="url(#gs3)" opacity="0.7" transform="rotate(40 4 21)"/>
  <!-- Pixel-art left angle bracket -->
  <rect x="2" y="8" width="2" height="2" fill="url(#gs3)"/>
  <rect x="4" y="6" width="2" height="2" fill="url(#gs3)"/>
  <rect x="6" y="4" width="4" height="2" fill="url(#gs3)"/>
  <rect x="4" y="14" width="2" height="4" fill="url(#gs3)"/>
  <rect x="2" y="14" width="2" height="4" fill="url(#gs3)"/>
  <rect x="4" y="18" width="2" height="2" fill="url(#gs3)"/>
  <rect x="6" y="20" width="4" height="2" fill="url(#gs3)"/>
  <rect x="4" y="22" width="2" height="2" fill="url(#gs3)"/>
  <rect x="2" y="22" width="2" height="2" fill="url(#gs3)"/>
  <!-- Slash -->
  <rect x="13" y="24" width="2" height="4" rx="1" fill="url(#gs3)" opacity="0.8"/>
  <rect x="15" y="20" width="2" height="4" rx="1" fill="url(#gs3)" opacity="0.8"/>
  <rect x="17" y="16" width="2" height="4" rx="1" fill="url(#gs3)" opacity="0.8"/>
  <rect x="19" y="12" width="2" height="4" rx="1" fill="url(#gs3)" opacity="0.8"/>
  <rect x="21" y="8" width="2" height="4" rx="1" fill="url(#gs3)" opacity="0.8"/>
  <rect x="23" y="4" width="2" height="4" rx="1" fill="url(#gs3)" opacity="0.8"/>
  <!-- Pixel-art right angle bracket -->
  <rect x="26" y="4" width="4" height="2" fill="url(#gs3)"/>
  <rect x="28" y="6" width="2" height="2" fill="url(#gs3)"/>
  <rect x="26" y="8" width="2" height="2" fill="url(#gs3)"/>
  <rect x="26" y="14" width="4" height="4" fill="url(#gs3)"/>
  <rect x="26" y="18" width="2" height="2" fill="url(#gs3)"/>
  <rect x="28" y="20" width="2" height="2" fill="url(#gs3)"/>
  <rect x="26" y="22" width="4" height="2" fill="url(#gs3)"/>
</svg>
