<svg width="18" height="18" viewBox="0 0 18 18" fill="none" xmlns="http://www.w3.org/2000/svg">
<g filter="url(#filter0_d_232_5576)">
<path d="M15.5467 6.54871C15.9097 5.45918 15.7847 4.26564 15.2042 3.27464C14.3311 1.75461 12.5761 0.972576 10.8621 1.34061C10.0995 0.481575 9.00401 -0.0069258 7.85548 7.42117e-05C6.10345 -0.0039258 4.54891 1.12411 4.00988 2.79114C2.88435 3.02164 1.91285 3.72617 1.34431 4.72468C0.464812 6.24071 0.665312 8.15175 1.84035 9.45178C1.47735 10.5413 1.60235 11.7348 2.18285 12.7258C3.05588 14.2459 4.81091 15.0279 6.52495 14.6599C7.28698 15.5189 8.38298 16.0074 9.53152 15.9999C11.2846 16.0044 12.8396 14.8754 13.3786 13.2068C14.5042 12.9763 15.4757 12.2718 16.0442 11.2733C16.9227 9.75728 16.7217 7.84774 15.5472 6.54771L15.5467 6.54871ZM9.53252 14.9544C8.83101 14.9554 8.15148 14.7099 7.61298 14.2604C7.63748 14.2474 7.67998 14.2239 7.70748 14.2069L10.8935 12.3669C11.0566 12.2744 11.1566 12.1009 11.1556 11.9134V7.42171L12.5021 8.19925C12.5166 8.20625 12.5261 8.22025 12.5281 8.23625V11.9558C12.5261 13.6099 11.1866 14.9509 9.53252 14.9544ZM3.09035 12.2028C2.73885 11.5958 2.61235 10.8843 2.73285 10.1938C2.75635 10.2078 2.79785 10.2333 2.82735 10.2503L6.01342 12.0903C6.17492 12.1848 6.37492 12.1848 6.53692 12.0903L10.4265 9.84428V11.3993C10.4275 11.4153 10.42 11.4308 10.4075 11.4408L7.18695 13.3003C5.75242 14.1264 3.92038 13.6353 3.09085 12.2028L3.09035 12.2028ZM2.25185 5.24818C2.60185 4.64018 3.15438 4.17514 3.81238 3.93364C3.81238 3.96114 3.81088 4.00964 3.81088 4.04364V7.72424C3.80988 7.91124 3.90988 8.08475 4.07238 8.17725L7.96198 10.4228L6.61545 11.2003C6.60195 11.2093 6.58495 11.2108 6.56995 11.2043L3.34888 9.34328C1.91735 8.51425 1.42634 6.68271 2.25135 5.24868L2.25185 5.24818ZM13.3151 7.82274L9.42548 5.57668L10.772 4.79968C10.7855 4.79068 10.8025 4.78918 10.8175 4.79568L14.0386 6.65521C15.4726 7.48371 15.9641 9.31828 15.1356 10.7523C14.7851 11.3593 14.2331 11.8243 13.5756 12.0663V8.27575C13.5771 8.08875 13.4776 7.91574 13.3156 7.82274H13.3151ZM14.6551 5.80568C14.6316 5.79118 14.5901 5.76618 14.5606 5.74918L11.3746 3.90914C11.213 3.81464 11.013 3.81464 10.851 3.90914L6.96145 6.15518V4.60014C6.96045 4.58415 6.96795 4.56865 6.98045 4.55864L10.201 2.70061C11.6356 1.87308 13.4696 2.36561 14.2966 3.80064C14.6461 4.40668 14.7726 5.11618 14.6541 5.80568H14.6551ZM6.22945 8.57725L4.88241 7.79974C4.86791 7.79274 4.85841 7.77874 4.85641 7.76274V4.04314C4.85741 2.38711 6.20095 1.04508 7.85698 1.04608C8.55748 1.04608 9.23552 1.29208 9.77402 1.74008C9.74952 1.75308 9.70752 1.77658 9.67952 1.79358L6.49345 3.63364C6.33045 3.72614 6.23045 3.89914 6.23145 4.08664L6.22945 8.57625V8.57725ZM6.96095 7.00021L8.69348 5.99968L10.426 6.99971V9.00025L8.69348 10.0003L6.96095 9.00025L6.96095 7.00021Z" fill="#858B94"/>
</g>
<defs>
<filter id="filter0_d_232_5576" x="-0.000195265" y="0" width="17.3881" height="17.6" filterUnits="userSpaceOnUse" color-interpolation-filters="sRGB">
<feFlood flood-opacity="0" result="BackgroundImageFix"/>
<feColorMatrix in="SourceAlpha" type="matrix" values="0 0 0 0 0 0 0 0 0 0 0 0 0 0 0 0 0 0 127 0" result="hardAlpha"/>
<feOffset dy="0.8"/>
<feGaussianBlur stdDeviation="0.4"/>
<feComposite in2="hardAlpha" operator="out"/>
<feColorMatrix type="matrix" values="0 0 0 0 0 0 0 0 0 0 0 0 0 0 0 0 0 0 1 0"/>
<feBlend mode="normal" in2="BackgroundImageFix" result="effect1_dropShadow_232_5576"/>
<feBlend mode="normal" in="SourceGraphic" in2="effect1_dropShadow_232_5576" result="shape"/>
</filter>
</defs>
</svg>
