<svg width="12" height="14" viewBox="0 0 12 14" fill="none" xmlns="http://www.w3.org/2000/svg">
<path d="M11.2398 5.13189C11.2382 5.1303 11.2366 5.12874 11.235 5.12715L6.34061 0.226296C6.30172 0.187618 6.25875 0.153264 6.21247 0.123805L6.07154 0.046929L5.97545 0.0148872H5.90497C5.79698 -0.00496241 5.68626 -0.00496241 5.57824 0.0148872H5.51419H5.43731L5.3284 0.0725443C5.2677 0.105517 5.21167 0.146447 5.16182 0.194255L0.248176 5.12715C-0.0808596 5.45357 -0.0829916 5.98495 0.243432 6.31398C0.244993 6.31557 0.246585 6.31714 0.248176 6.31873C0.579854 6.63518 1.10165 6.63518 1.43336 6.31873L4.36105 3.39744C4.48735 3.27359 4.69017 3.27558 4.81402 3.40191C4.87164 3.46068 4.90444 3.53936 4.90558 3.62167V13.1607C4.90555 13.6242 5.28125 14 5.74476 14C6.20827 14 6.584 13.6243 6.58406 13.1608V13.1607V3.62167C6.58655 3.44479 6.73195 3.30338 6.90883 3.30587C6.99111 3.30705 7.06982 3.33981 7.12859 3.39744L10.0435 6.31873C10.376 6.63926 10.9025 6.63926 11.2351 6.31873C11.5641 5.9923 11.5662 5.46093 11.2398 5.13189Z" fill="black"/>
</svg>
