<svg width="18" height="14" viewBox="0 0 18 14" fill="none" xmlns="http://www.w3.org/2000/svg">
<g filter="url(#filter0_d_232_5578)">
<path d="M1.89074 12.0029H4.43617V5.8211L0.799805 3.09383V10.912C0.799805 11.5147 1.28799 12.0029 1.89074 12.0029Z" fill="#858B94"/>
<path d="M13.1634 12.0029H15.7089C16.3116 12.0029 16.7998 11.5147 16.7998 10.912V3.09383L13.1634 5.8211V12.0029Z" fill="#858B94"/>
<path d="M13.1634 1.09387V5.8211L16.7998 3.09383V1.63934C16.7998 0.291156 15.2607 -0.478842 14.1816 0.33025L13.1634 1.09387Z" fill="#858B94"/>
<path fill-rule="evenodd" clip-rule="evenodd" d="M4.43617 5.8211V1.09383L8.79978 4.36657L13.1634 1.09387V5.8211L8.79978 9.0938L4.43617 5.8211Z" fill="#858B94"/>
<path d="M0.799805 1.63929V3.09383L4.43617 5.8211V1.09383L3.41798 0.330202C2.33886 -0.478889 0.799805 0.291171 0.799805 1.63929Z" fill="#858B94"/>
</g>
<defs>
<filter id="filter0_d_232_5578" x="-0.00019294" y="0" width="17.6" height="13.6029" filterUnits="userSpaceOnUse" color-interpolation-filters="sRGB">
<feFlood flood-opacity="0" result="BackgroundImageFix"/>
<feColorMatrix in="SourceAlpha" type="matrix" values="0 0 0 0 0 0 0 0 0 0 0 0 0 0 0 0 0 0 127 0" result="hardAlpha"/>
<feOffset dy="0.799998"/>
<feGaussianBlur stdDeviation="0.399999"/>
<feComposite in2="hardAlpha" operator="out"/>
<feColorMatrix type="matrix" values="0 0 0 0 0 0 0 0 0 0 0 0 0 0 0 0 0 0 1 0"/>
<feBlend mode="normal" in2="BackgroundImageFix" result="effect1_dropShadow_232_5578"/>
<feBlend mode="normal" in="SourceGraphic" in2="effect1_dropShadow_232_5578" result="shape"/>
</filter>
</defs>
</svg>
