<svg width="25" height="32" viewBox="0 0 25 32" fill="none" xmlns="http://www.w3.org/2000/svg">
<path d="M9.41211 1.88232H11.2946V3.76483H9.41211V1.88232Z" fill="url(#paint0_linear_232_5587)"/>
<path d="M11.2949 0H13.1774V1.8825H11.2949V0Z" fill="url(#paint1_linear_232_5587)"/>
<path d="M13.1768 1.88232H15.0593V3.76483H13.1768V1.88232Z" fill="url(#paint2_linear_232_5587)"/>
<path d="M18.8234 18.8239V7.52952H16.9409V3.76514H15.059V7.52946H9.41154V3.76514H7.52966V7.52946H5.64715V18.8239H3.76465V20.7057H5.64715V24.4707H7.52966V26.3532H9.41154V22.5882H11.294V20.7057H13.1765V22.5882H15.059V26.3532H16.9409V24.4707H18.8234V20.7057H20.7059V18.8239H18.8234V18.8239ZM15.059 16.9414H13.1765V18.8239H11.294V16.9414H9.41154V13.1764H11.294V11.2945H13.1765V13.1764H15.059V16.9414Z" fill="url(#paint3_linear_232_5587)"/>
<path d="M11.2949 13.1763H13.1774V16.9413H11.2949V13.1763Z" fill="url(#paint4_linear_232_5587)"/>
<path d="M15.0596 26.3529V30.1173H13.1771V31.9998H11.2946V30.1173H9.41211V26.3529H11.2946V22.5879H13.1771V26.3529H15.0596Z" fill="url(#paint5_linear_232_5587)"/>
<path d="M7.52939 26.3531V28.235H5.64689V30.1175H3.76438V32H0V22.5881H1.88188V20.7056H3.76438V24.4706H5.64689V26.3531H7.52939Z" fill="url(#paint6_linear_232_5587)"/>
<path d="M24.4708 22.5881V32H20.7064V30.1175H18.8239V28.235H16.9414V26.3531H18.8239V24.4706H20.7064V20.7056H22.5889V22.5881H24.4708Z" fill="url(#paint7_linear_232_5587)"/>
<defs>
<linearGradient id="paint0_linear_232_5587" x1="10.3534" y1="1.88232" x2="10.3534" y2="3.76483" gradientUnits="userSpaceOnUse">
<stop stop-color="#FFC400"/>
<stop offset="0.35" stop-color="#66BCD3"/>
<stop offset="0.7" stop-color="#E06368"/>
<stop offset="1" stop-color="#FF72E5"/>
</linearGradient>
<linearGradient id="paint1_linear_232_5587" x1="12.2362" y1="0" x2="12.2362" y2="1.8825" gradientUnits="userSpaceOnUse">
<stop stop-color="#FFC400"/>
<stop offset="0.35" stop-color="#66BCD3"/>
<stop offset="0.7" stop-color="#E06368"/>
<stop offset="1" stop-color="#FF72E5"/>
</linearGradient>
<linearGradient id="paint2_linear_232_5587" x1="14.118" y1="1.88232" x2="14.118" y2="3.76483" gradientUnits="userSpaceOnUse">
<stop stop-color="#FFC400"/>
<stop offset="0.35" stop-color="#66BCD3"/>
<stop offset="0.7" stop-color="#E06368"/>
<stop offset="1" stop-color="#FF72E5"/>
</linearGradient>
<linearGradient id="paint3_linear_232_5587" x1="12.2353" y1="3.76514" x2="12.2353" y2="26.3532" gradientUnits="userSpaceOnUse">
<stop stop-color="#FFC400"/>
<stop offset="0.35" stop-color="#66BCD3"/>
<stop offset="0.7" stop-color="#E06368"/>
<stop offset="1" stop-color="#FF72E5"/>
</linearGradient>
<linearGradient id="paint4_linear_232_5587" x1="12.2362" y1="13.1763" x2="12.2362" y2="16.9413" gradientUnits="userSpaceOnUse">
<stop stop-color="#FFC400"/>
<stop offset="0.35" stop-color="#66BCD3"/>
<stop offset="0.7" stop-color="#E06368"/>
<stop offset="1" stop-color="#FF72E5"/>
</linearGradient>
<linearGradient id="paint5_linear_232_5587" x1="12.2359" y1="22.5879" x2="12.2359" y2="31.9998" gradientUnits="userSpaceOnUse">
<stop stop-color="#FFC400"/>
<stop offset="0.35" stop-color="#66BCD3"/>
<stop offset="0.7" stop-color="#E06368"/>
<stop offset="1" stop-color="#FF72E5"/>
</linearGradient>
<linearGradient id="paint6_linear_232_5587" x1="3.7647" y1="20.7056" x2="3.7647" y2="32" gradientUnits="userSpaceOnUse">
<stop stop-color="#FFC400"/>
<stop offset="0.35" stop-color="#66BCD3"/>
<stop offset="0.7" stop-color="#E06368"/>
<stop offset="1" stop-color="#FF72E5"/>
</linearGradient>
<linearGradient id="paint7_linear_232_5587" x1="20.7061" y1="20.7056" x2="20.7061" y2="32" gradientUnits="userSpaceOnUse">
<stop stop-color="#FFC400"/>
<stop offset="0.35" stop-color="#66BCD3"/>
<stop offset="0.7" stop-color="#E06368"/>
<stop offset="1" stop-color="#FF72E5"/>
</linearGradient>
</defs>
</svg>
