<svg width="10" height="16" viewBox="0 0 10 16" fill="none" xmlns="http://www.w3.org/2000/svg">
<path d="M6.29785 0C8.05059 0 9.47656 1.26169 9.47656 2.8125V12.25C9.47656 14.3177 7.57527 16 5.23828 16C2.90129 16 0 14.3177 0 12.25V2.8125H1.05957V12.25C1.05957 13.8008 3.48554 15.0625 5.23828 15.0625C6.99102 15.0625 8.41699 13.8008 8.41699 12.25V2.8125C8.41699 1.77863 7.46635 0.9375 6.29785 0.9375C5.12936 0.9375 4.17871 1.77863 4.17871 2.8125V10.375C4.17871 10.8919 4.65403 11.3125 5.23828 11.3125C5.82253 11.3125 6.29785 10.8919 6.29785 10.375V2.8125H7.35742V10.375C7.35742 11.4089 6.40678 12.25 5.23828 12.25C4.06979 12.25 3.11914 11.4089 3.11914 10.375V2.8125C3.11914 1.26169 4.54511 0 6.29785 0Z" fill="#858B94"/>
</svg>
