<svg width="32" height="32" viewBox="0 0 32 32" fill="none" xmlns="http://www.w3.org/2000/svg">
  <defs>
    <linearGradient id="g14" x1="0" y1="0" x2="32" y2="32" gradientUnits="userSpaceOnUse">
      <stop stop-color="#f9a8d4"/>
      <stop offset="1" stop-color="#db2777"/>
    </linearGradient>
  </defs>
  <!-- Human head -->
  <rect x="11" y="1" width="10" height="2" rx="1" fill="url(#g14)" opacity="0.9"/>
  <rect x="9" y="3" width="14" height="8" rx="3" fill="url(#g14)" opacity="0.9"/>
  <rect x="10" y="5" width="3" height="3" rx="1" fill="url(#g14)" opacity="0.4"/>
  <rect x="19" y="5" width="3" height="3" rx="1" fill="url(#g14)" opacity="0.4"/>
  <!-- Neck -->
  <rect x="14" y="11" width="4" height="3" fill="url(#g14)" opacity="0.7"/>
  <!-- Circuit body / AI pattern -->
  <rect x="8" y="14" width="16" height="2" rx="1" fill="url(#g14)" opacity="0.9"/>
  <!-- Left arm circuit -->
  <rect x="4" y="14" width="4" height="2" rx="1" fill="url(#g14)" opacity="0.6"/>
  <rect x="4" y="16" width="2" height="4" rx="1" fill="url(#g14)" opacity="0.6"/>
  <rect x="2" y="20" width="4" height="2" rx="1" fill="url(#g14)" opacity="0.4"/>
  <!-- Right arm circuit -->
  <rect x="24" y="14" width="4" height="2" rx="1" fill="url(#g14)" opacity="0.6"/>
  <rect x="26" y="16" width="2" height="4" rx="1" fill="url(#g14)" opacity="0.6"/>
  <rect x="26" y="20" width="4" height="2" rx="1" fill="url(#g14)" opacity="0.4"/>
  <!-- Body circuit nodes -->
  <rect x="10" y="16" width="4" height="4" rx="1" fill="url(#g14)" opacity="0.5"/>
  <rect x="18" y="16" width="4" height="4" rx="1" fill="url(#g14)" opacity="0.5"/>
  <rect x="14" y="18" width="4" height="2" fill="url(#g14)" opacity="0.3"/>
  <!-- Legs / data streams -->
  <rect x="11" y="20" width="4" height="8" rx="1" fill="url(#g14)" opacity="0.7"/>
  <rect x="17" y="20" width="4" height="8" rx="1" fill="url(#g14)" opacity="0.7"/>
  <!-- Circuit dots -->
  <rect x="14" y="24" width="2" height="2" rx="0.5" fill="url(#g14)" opacity="0.9"/>
  <rect x="17" y="22" width="2" height="2" rx="0.5" fill="url(#g14)" opacity="0.9"/>
</svg>
