<svg width="15" height="16" viewBox="0 0 15 16" fill="none" xmlns="http://www.w3.org/2000/svg">
<path d="M7.42885 0C7.2773 0 7.13195 0.0602039 7.02479 0.167368C6.91763 0.274531 6.85742 0.419876 6.85742 0.571429V15.4286C6.85742 15.5801 6.91763 15.7255 7.02479 15.8326C7.13195 15.9398 7.2773 16 7.42885 16C7.5804 16 7.72575 15.9398 7.83291 15.8326C7.94008 15.7255 8.00028 15.5801 8.00028 15.4286V0.571429C8.00028 0.419876 7.94008 0.274531 7.83291 0.167368C7.72575 0.0602039 7.5804 0 7.42885 0Z" fill="url(#paint0_linear_232_5560)"/>
<path d="M9.71401 4C9.56245 4 9.41711 4.0602 9.30995 4.16737C9.20278 4.27453 9.14258 4.41988 9.14258 4.57143V12C9.14258 12.1516 9.20278 12.2969 9.30995 12.4041C9.41711 12.5112 9.56245 12.5714 9.71401 12.5714C9.86556 12.5714 10.0109 12.5112 10.1181 12.4041C10.2252 12.2969 10.2854 12.1516 10.2854 12V4.57143C10.2854 4.41988 10.2252 4.27453 10.1181 4.16737C10.0109 4.0602 9.86556 4 9.71401 4Z" fill="url(#paint1_linear_232_5560)"/>
<path d="M12.0001 2.28564C11.8486 2.28564 11.7032 2.34585 11.5961 2.45301C11.4889 2.56018 11.4287 2.70552 11.4287 2.85707V13.7142C11.4287 13.8658 11.4889 14.0111 11.5961 14.1183C11.7032 14.2254 11.8486 14.2856 12.0001 14.2856C12.1517 14.2856 12.297 14.2254 12.4042 14.1183C12.5114 14.0111 12.5716 13.8658 12.5716 13.7142V2.85707C12.5716 2.70552 12.5114 2.56018 12.4042 2.45301C12.297 2.34585 12.1517 2.28564 12.0001 2.28564Z" fill="url(#paint2_linear_232_5560)"/>
<path d="M14.2863 5.71436C14.1347 5.71436 13.9894 5.77456 13.8822 5.88172C13.775 5.98889 13.7148 6.13423 13.7148 6.28578V10.2858C13.7148 10.4373 13.775 10.5827 13.8822 10.6898C13.9894 10.797 14.1347 10.8572 14.2863 10.8572C14.4378 10.8572 14.5832 10.797 14.6903 10.6898C14.7975 10.5827 14.8577 10.4373 14.8577 10.2858V6.28578C14.8577 6.13423 14.7975 5.98889 14.6903 5.88172C14.5832 5.77456 14.4378 5.71436 14.2863 5.71436Z" fill="url(#paint3_linear_232_5560)"/>
<path d="M5.14272 4C4.99117 4 4.84582 4.0602 4.73866 4.16737C4.63149 4.27453 4.57129 4.41988 4.57129 4.57143V12C4.57129 12.1516 4.63149 12.2969 4.73866 12.4041C4.84582 12.5112 4.99117 12.5714 5.14272 12.5714C5.29427 12.5714 5.43961 12.5112 5.54678 12.4041C5.65394 12.2969 5.71415 12.1516 5.71415 12V4.57143C5.71415 4.41988 5.65394 4.27453 5.54678 4.16737C5.43961 4.0602 5.29427 4 5.14272 4Z" fill="url(#paint4_linear_232_5560)"/>
<path d="M2.85756 2.28564C2.70601 2.28564 2.56066 2.34585 2.4535 2.45301C2.34634 2.56018 2.28613 2.70552 2.28613 2.85707V13.7142C2.28613 13.8658 2.34634 14.0111 2.4535 14.1183C2.56066 14.2254 2.70601 14.2856 2.85756 14.2856C3.00911 14.2856 3.15446 14.2254 3.26162 14.1183C3.36879 14.0111 3.42899 13.8658 3.42899 13.7142V2.85707C3.42899 2.70552 3.36879 2.56018 3.26162 2.45301C3.15446 2.34585 3.00911 2.28564 2.85756 2.28564Z" fill="url(#paint5_linear_232_5560)"/>
<path d="M0.571429 5.71436C0.419876 5.71436 0.274531 5.77456 0.167368 5.88172C0.0602039 5.98889 0 6.13423 0 6.28578V10.2858C0 10.4373 0.0602039 10.5827 0.167368 10.6898C0.274531 10.797 0.419876 10.8572 0.571429 10.8572C0.722981 10.8572 0.868326 10.797 0.975489 10.6898C1.08265 10.5827 1.14286 10.4373 1.14286 10.2858V6.28578C1.14286 6.13423 1.08265 5.98889 0.975489 5.88172C0.868326 5.77456 0.722981 5.71436 0.571429 5.71436Z" fill="url(#paint6_linear_232_5560)"/>
<defs>
<linearGradient id="paint0_linear_232_5560" x1="7.04255" y1="1.44393" x2="7.97499" y2="1.44782" gradientUnits="userSpaceOnUse">
<stop stop-color="white"/>
<stop offset="1" stop-color="#BDBBBB"/>
</linearGradient>
<linearGradient id="paint1_linear_232_5560" x1="9.32771" y1="4.77353" x2="10.2601" y2="4.78079" gradientUnits="userSpaceOnUse">
<stop stop-color="white"/>
<stop offset="1" stop-color="#BDBBBB"/>
</linearGradient>
<linearGradient id="paint2_linear_232_5560" x1="11.6138" y1="3.36859" x2="12.5463" y2="3.37378" gradientUnits="userSpaceOnUse">
<stop stop-color="white"/>
<stop offset="1" stop-color="#BDBBBB"/>
</linearGradient>
<linearGradient id="paint3_linear_232_5560" x1="13.9" y1="6.17847" x2="14.8323" y2="6.19058" gradientUnits="userSpaceOnUse">
<stop stop-color="white"/>
<stop offset="1" stop-color="#BDBBBB"/>
</linearGradient>
<linearGradient id="paint4_linear_232_5560" x1="4.75642" y1="4.77353" x2="5.68881" y2="4.78079" gradientUnits="userSpaceOnUse">
<stop stop-color="white"/>
<stop offset="1" stop-color="#BDBBBB"/>
</linearGradient>
<linearGradient id="paint5_linear_232_5560" x1="2.47126" y1="3.36859" x2="3.40368" y2="3.37378" gradientUnits="userSpaceOnUse">
<stop stop-color="white"/>
<stop offset="1" stop-color="#BDBBBB"/>
</linearGradient>
<linearGradient id="paint6_linear_232_5560" x1="0.185129" y1="6.17847" x2="1.11742" y2="6.19058" gradientUnits="userSpaceOnUse">
<stop stop-color="white"/>
<stop offset="1" stop-color="#BDBBBB"/>
</linearGradient>
</defs>
</svg>
