<svg width="32" height="32" viewBox="0 0 32 32" fill="none" xmlns="http://www.w3.org/2000/svg">
  <defs>
    <linearGradient id="gs4" x1="0" y1="0" x2="32" y2="32" gradientUnits="userSpaceOnUse">
      <stop stop-color="#FFC400"/>
      <stop offset="0.35" stop-color="#66BCD3"/>
      <stop offset="0.7" stop-color="#E06368"/>
      <stop offset="1" stop-color="#FF72E5"/>
    </linearGradient>
  </defs>
  <!-- Shield outline -->
  <rect x="8" y="2" width="16" height="2" rx="1" fill="url(#gs4)"/>
  <rect x="6" y="4" width="2" height="2" fill="url(#gs4)"/>
  <rect x="24" y="4" width="2" height="2" fill="url(#gs4)"/>
  <rect x="4" y="6" width="2" height="14" rx="1" fill="url(#gs4)"/>
  <rect x="26" y="6" width="2" height="14" rx="1" fill="url(#gs4)"/>
  <!-- Shield taper -->
  <rect x="6" y="20" width="2" height="2" fill="url(#gs4)"/>
  <rect x="24" y="20" width="2" height="2" fill="url(#gs4)"/>
  <rect x="8" y="22" width="2" height="2" fill="url(#gs4)"/>
  <rect x="22" y="22" width="2" height="2" fill="url(#gs4)"/>
  <rect x="10" y="24" width="2" height="2" fill="url(#gs4)"/>
  <rect x="20" y="24" width="2" height="2" fill="url(#gs4)"/>
  <rect x="12" y="26" width="2" height="2" fill="url(#gs4)"/>
  <rect x="18" y="26" width="2" height="2" fill="url(#gs4)"/>
  <rect x="14" y="28" width="4" height="2" rx="1" fill="url(#gs4)"/>
  <!-- Checkmark inside shield -->
  <rect x="10" y="12" width="2" height="2" fill="url(#gs4)" opacity="0.8"/>
  <rect x="12" y="14" width="2" height="2" fill="url(#gs4)" opacity="0.8"/>
  <rect x="14" y="12" width="2" height="2" fill="url(#gs4)" opacity="0.8"/>
  <rect x="16" y="10" width="2" height="2" fill="url(#gs4)" opacity="0.8"/>
  <rect x="18" y="8" width="2" height="2" fill="url(#gs4)" opacity="0.8"/>
  <!-- Optimization arrows: circular dots around shield top -->
  <rect x="14" y="0" width="4" height="2" rx="1" fill="url(#gs4)" opacity="0.5"/>
  <rect x="28" y="10" width="2" height="4" rx="1" fill="url(#gs4)" opacity="0.3"/>
  <rect x="2" y="10" width="2" height="4" rx="1" fill="url(#gs4)" opacity="0.3"/>
</svg>
