<svg width="32" height="32" viewBox="0 0 32 32" fill="none" xmlns="http://www.w3.org/2000/svg">
  <defs>
    <linearGradient id="g12" x1="0" y1="0" x2="32" y2="32" gradientUnits="userSpaceOnUse">
      <stop stop-color="#93c5fd"/>
      <stop offset="1" stop-color="#2563eb"/>
    </linearGradient>
  </defs>
  <!-- Crosshair arms top/bottom/left/right -->
  <rect x="14" y="0" width="4" height="6" rx="1" fill="url(#g12)"/>
  <rect x="14" y="26" width="4" height="6" rx="1" fill="url(#g12)"/>
  <rect x="0" y="14" width="6" height="4" rx="1" fill="url(#g12)"/>
  <rect x="26" y="14" width="6" height="4" rx="1" fill="url(#g12)"/>
  <!-- Outer ring -->
  <rect x="8" y="4" width="16" height="2" rx="1" fill="url(#g12)" opacity="0.7"/>
  <rect x="4" y="8" width="2" height="16" rx="1" fill="url(#g12)" opacity="0.7"/>
  <rect x="26" y="8" width="2" height="16" rx="1" fill="url(#g12)" opacity="0.7"/>
  <rect x="8" y="26" width="16" height="2" rx="1" fill="url(#g12)" opacity="0.7"/>
  <!-- Corner pixels -->
  <rect x="6" y="6" width="2" height="2" fill="url(#g12)" opacity="0.5"/>
  <rect x="24" y="6" width="2" height="2" fill="url(#g12)" opacity="0.5"/>
  <rect x="6" y="24" width="2" height="2" fill="url(#g12)" opacity="0.5"/>
  <rect x="24" y="24" width="2" height="2" fill="url(#g12)" opacity="0.5"/>
  <!-- Inner ring -->
  <rect x="12" y="10" width="8" height="2" rx="1" fill="url(#g12)" opacity="0.5"/>
  <rect x="10" y="12" width="2" height="8" rx="1" fill="url(#g12)" opacity="0.5"/>
  <rect x="20" y="12" width="2" height="8" rx="1" fill="url(#g12)" opacity="0.5"/>
  <rect x="12" y="20" width="8" height="2" rx="1" fill="url(#g12)" opacity="0.5"/>
  <!-- Center dot -->
  <rect x="13" y="13" width="6" height="6" rx="1.5" fill="url(#g12)"/>
</svg>
