<svg width="32" height="32" viewBox="0 0 32 32" fill="none" xmlns="http://www.w3.org/2000/svg">
  <defs>
    <linearGradient id="gs1" x1="0" y1="0" x2="32" y2="32" gradientUnits="userSpaceOnUse">
      <stop stop-color="#FFC400"/>
      <stop offset="0.35" stop-color="#66BCD3"/>
      <stop offset="0.7" stop-color="#E06368"/>
      <stop offset="1" stop-color="#FF72E5"/>
    </linearGradient>
  </defs>
  <!-- Lens circle -->
  <rect x="4" y="4" width="18" height="2" rx="1" fill="url(#gs1)" opacity="0.6"/>
  <rect x="2" y="6" width="2" height="14" rx="1" fill="url(#gs1)" opacity="0.6"/>
  <rect x="20" y="6" width="2" height="14" rx="1" fill="url(#gs1)" opacity="0.6"/>
  <rect x="4" y="20" width="18" height="2" rx="1" fill="url(#gs1)" opacity="0.6"/>
  <!-- Lens corners -->
  <rect x="4" y="4" width="2" height="2" fill="url(#gs1)"/>
  <rect x="20" y="4" width="2" height="2" fill="url(#gs1)"/>
  <rect x="4" y="20" width="2" height="2" fill="url(#gs1)"/>
  <rect x="20" y="20" width="2" height="2" fill="url(#gs1)"/>
  <!-- Inner circle detail -->
  <rect x="8" y="8" width="10" height="2" rx="1" fill="url(#gs1)" opacity="0.35"/>
  <rect x="6" y="10" width="2" height="6" rx="1" fill="url(#gs1)" opacity="0.35"/>
  <rect x="16" y="10" width="2" height="6" rx="1" fill="url(#gs1)" opacity="0.35"/>
  <rect x="8" y="16" width="10" height="2" rx="1" fill="url(#gs1)" opacity="0.35"/>
  <!-- Center dot -->
  <rect x="10" y="10" width="6" height="6" rx="1" fill="url(#gs1)" opacity="0.6"/>
  <!-- Handle -->
  <rect x="20" y="20" width="2" height="2" fill="url(#gs1)"/>
  <rect x="22" y="22" width="2" height="2" fill="url(#gs1)"/>
  <rect x="24" y="24" width="2" height="2" fill="url(#gs1)"/>
  <rect x="26" y="26" width="2" height="2" fill="url(#gs1)"/>
  <rect x="28" y="28" width="2" height="2" rx="1" fill="url(#gs1)"/>
</svg>
