<svg width="19" height="18" viewBox="0 0 19 18" fill="none" xmlns="http://www.w3.org/2000/svg">
<path d="M1.75327 11.1997C1.75436 11.4042 1.53343 11.5328 1.35586 11.4313C0.546622 10.9688 0 10.097 0 9.1V7.62222C0 7.04044 0.186278 6.50106 0.502056 6.06122V0.622222H0.357078C0.191333 0.622222 0.0466667 0.497078 0.03605 0.331683C0.0244222 0.150461 0.167806 0 0.3465 0H1.26926C1.435 0 1.57967 0.125144 1.59028 0.290539C1.60191 0.471761 1.45853 0.622222 1.27983 0.622222H1.12428V5.43939C1.19832 5.38642 1.27513 5.33711 1.35446 5.29169C1.53148 5.19034 1.75198 5.31868 1.75148 5.52265C1.74852 6.69799 1.74693 10.0184 1.75327 11.1997ZM6.76667 5.71667C6.18769 5.71667 5.71667 6.18769 5.71667 6.76667C5.71667 7.34564 6.18769 7.81667 6.76667 7.81667C7.34564 7.81667 7.81667 7.34564 7.81667 6.76667C7.81667 6.18769 7.34564 5.71667 6.76667 5.71667ZM11.8222 5.71667C11.2432 5.71667 10.7722 6.18769 10.7722 6.76667C10.7722 7.34564 11.2432 7.81667 11.8222 7.81667C12.4012 7.81667 12.8722 7.34564 12.8722 6.76667C12.8722 6.18769 12.4012 5.71667 11.8222 5.71667ZM9.29122 10.214C8.25405 10.2057 7.75806 10.4569 7.72209 10.5619C7.64906 10.7749 8.28485 11.7056 9.29837 11.7056C10.2906 11.7056 10.9342 10.8104 10.865 10.5954C10.8224 10.4633 10.2601 10.2228 9.29122 10.214ZM16.2167 5.25V11.3944C16.2167 12.7668 15.1002 13.8833 13.7278 13.8833H4.86111C3.48872 13.8833 2.37222 12.7668 2.37222 11.3944V5.25C2.37222 3.87761 3.48872 2.76111 4.86111 2.76111H13.7278C15.1002 2.76111 16.2167 3.87761 16.2167 5.25ZM6.76667 8.43889C7.68872 8.43889 8.43889 7.68872 8.43889 6.76667C8.43889 5.84461 7.68872 5.09444 6.76667 5.09444C5.84461 5.09444 5.09444 5.84461 5.09444 6.76667C5.09444 7.68872 5.84461 8.43889 6.76667 8.43889ZM11.4572 10.4046C11.2194 9.66653 9.74357 9.59587 9.29689 9.59183C8.85278 9.58739 7.38325 9.63118 7.13347 10.3603C6.88644 11.0814 7.95951 12.3278 9.29837 12.3278C10.6092 12.3277 11.6906 11.1288 11.4572 10.4046ZM13.4944 6.76667C13.4944 5.84461 12.7443 5.09444 11.8222 5.09444C10.9002 5.09444 10.15 5.84461 10.15 6.76667C10.15 7.68872 10.9002 8.43889 11.8222 8.43889C12.7443 8.43889 13.4944 7.68872 13.4944 6.76667ZM18.6278 7.62261V9.09961C18.6278 9.835 18.3307 10.5019 17.85 10.9869V13.8149C17.85 15.3776 16.5832 16.6444 15.0204 16.6444H14.1303C14.0233 17.1333 13.587 17.5 13.0667 17.5H11.8222C11.2208 17.5 10.7333 17.0125 10.7333 16.4111V16.2556C10.7333 15.6542 11.2208 15.1667 11.8222 15.1667H13.0667C13.587 15.1667 14.0233 15.5334 14.1303 16.0222H15.0204C16.2395 16.0222 17.2278 15.034 17.2278 13.8149V11.4559C17.0436 11.5563 16.8341 11.4185 16.8352 11.2218C16.8423 10.0399 16.8405 6.67602 16.8372 5.50095C16.8366 5.29908 17.053 5.17051 17.2301 5.2675C17.3096 5.31109 17.3868 5.35862 17.4611 5.40979V0.622222H17.3056C17.1269 0.622222 16.9835 0.471761 16.9951 0.290539C17.0058 0.125144 17.1504 0 17.3162 0H18.2389C18.4176 0 18.561 0.150461 18.5494 0.331683C18.5388 0.497078 18.3941 0.622222 18.2283 0.622222H18.0833V6.00444C18.4252 6.45439 18.6278 7.01517 18.6278 7.62261Z" fill="url(#paint0_linear_393_1188)"/>
<defs>
<linearGradient id="paint0_linear_393_1188" x1="9.31389" y1="0" x2="9.31389" y2="17.5" gradientUnits="userSpaceOnUse">
<stop stop-color="#111419"/>
<stop offset="0.582058" stop-color="#04070D"/>
</linearGradient>
</defs>
</svg>
